<?xml version="1.0" standalone="no"?>
<!DOCTYPE svg PUBLIC "-//W3C//DTD SVG 20010904//EN"
 "http://www.w3.org/TR/2001/REC-SVG-20010904/DTD/svg10.dtd">
<svg version="1.0" xmlns="http://www.w3.org/2000/svg"
 width="1503.000000pt" height="1503.000000pt" viewBox="0 0 1503.000000 1503.000000"
 preserveAspectRatio="xMidYMid meet">
<metadata>
Created by potrace 1.14, written by Peter Selinger 2001-2017
</metadata>
<g transform="translate(0.000000,1503.000000) scale(0.100000,-0.100000)"
fill="#000000" stroke="none">
<path d="M5651 13889 c-177 -35 -358 -143 -471 -282 -28 -34 -73 -107 -100
-162 -91 -188 -84 -29 -87 -1842 l-4 -1603 -1627 -2 -1627 -3 -70 -24 c-293
-99 -481 -296 -562 -592 -17 -60 -18 -175 -18 -1859 0 -1684 1 -1799 18 -1859
81 -296 269 -493 562 -592 l70 -24 1627 -3 1627 -2 3 -1618 3 -1617 23 -80
c89 -315 323 -538 628 -600 71 -14 269 -15 1879 -13 l1800 3 94 33 c135 47
222 102 322 201 100 100 154 187 201 321 l33 95 3 1637 2 1638 1638 2 1637 3
93 33 c104 36 160 66 242 128 141 107 244 261 296 444 18 62 19 145 22 1830 2
1268 0 1787 -8 1844 -41 283 -226 520 -498 638 l-77 33 -1017 3 c-678 1 -1018
-1 -1018 -8 0 -5 13 -51 29 -102 16 -51 48 -153 71 -225 l41 -133 848 0 c824
0 851 -1 914 -20 50 -15 80 -33 122 -72 68 -62 101 -124 115 -215 7 -46 10
-612 8 -1753 l-3 -1685 -32 -67 c-37 -79 -94 -137 -171 -175 l-57 -28 -1832
-3 -1833 -2 -2 -1833 -3 -1832 -29 -59 c-37 -76 -96 -135 -172 -172 l-59 -29
-1725 -3 c-1200 -2 -1741 1 -1777 8 -74 16 -165 78 -207 142 -70 106 -66 -24
-66 1975 l0 1803 -1827 2 -1828 3 -48 22 c-62 29 -143 106 -173 164 -13 26
-28 75 -34 110 -6 40 -10 364 -10 872 l0 807 438 0 c373 0 441 2 459 15 26 18
24 7 113 540 71 427 79 469 86 450 2 -5 96 -586 209 -1290 114 -704 210 -1298
215 -1320 12 -55 40 -75 106 -75 45 0 56 4 69 23 10 16 61 366 160 1113 81
599 149 1096 152 1104 2 8 83 -280 179 -639 132 -498 179 -660 196 -678 17
-18 32 -23 69 -23 62 0 84 26 132 156 19 55 76 211 126 348 49 137 95 254 101
260 8 8 160 12 514 16 477 5 505 6 525 24 11 10 64 103 117 205 53 102 102
194 109 204 13 18 13 18 19 0 6 -19 369 -1538 437 -1828 42 -179 57 -209 108
-220 38 -8 82 7 103 36 11 16 96 379 248 1074 127 578 234 1059 237 1070 6 19
7 18 14 -5 5 -14 67 -341 139 -726 71 -386 133 -709 136 -718 9 -23 56 -46 93
-46 20 0 41 10 60 28 26 23 48 84 166 447 96 298 142 425 156 438 19 15 48 17
285 17 l263 0 -143 -292 c-389 -797 -977 -1985 -1593 -3221 l-683 -1368 0
-365 c0 -403 0 -406 63 -444 31 -20 64 -20 1757 -20 1693 0 1726 0 1757 20 48
29 66 72 71 172 4 80 2 91 -22 132 -34 59 -96 108 -187 150 -146 67 -325 96
-719 116 -118 6 -233 16 -255 22 -56 14 -94 45 -116 92 -49 107 -1 209 115
246 137 44 864 -82 1066 -185 27 -14 51 -21 54 -17 11 18 36 170 51 304 13
125 15 352 15 1517 l0 1370 29 21 c98 69 250 103 372 82 93 -16 162 -47 199
-88 l29 -34 1141 0 1142 0 -6 28 c-3 15 -24 133 -46 262 -110 633 -337 1597
-544 2318 -99 341 -169 557 -278 847 -217 581 -348 1026 -348 1185 0 132 42
248 127 348 108 126 566 382 1133 631 412 181 502 237 563 348 49 91 54 135
51 411 -3 272 -6 285 -56 314 -18 10 -122 12 -468 9 -589 -4 -712 10 -897 98
-140 67 -199 115 -433 354 -236 241 -269 266 -347 267 -28 0 -201 -54 -528
-164 l-486 -165 -83 112 c-71 97 -538 752 -665 935 -24 34 -47 62 -51 62 -19
0 -264 -987 -302 -1215 -20 -122 -17 -567 5 -720 26 -176 45 -275 78 -408 l29
-118 0 -1312 c0 -1322 -2 -1384 -37 -1491 -9 -27 -119 -259 -244 -515 l-229
-466 -387 -5 c-214 -3 -389 -7 -390 -8 -13 -13 -40 -88 -118 -321 l-91 -274
-47 234 c-45 226 -247 1305 -247 1322 0 4 -11 19 -25 32 -33 34 -103 35 -139
3 -24 -21 -43 -101 -240 -998 -118 -536 -227 -1030 -242 -1097 -15 -68 -31
-123 -36 -123 -4 0 -8 3 -8 8 0 4 -99 419 -219 921 -243 1016 -222 951 -310
951 -36 0 -52 -5 -68 -22 -12 -13 -87 -149 -168 -303 -81 -154 -156 -289 -166
-300 -19 -19 -36 -20 -527 -25 -279 -3 -513 -9 -520 -13 -20 -13 -35 -49 -117
-277 -42 -118 -80 -221 -84 -227 -4 -7 -96 323 -204 735 -220 833 -205 792
-293 792 -34 0 -51 -6 -69 -25 -14 -13 -25 -29 -25 -36 0 -17 -259 -1960 -266
-1992 -3 -16 -7 -27 -9 -25 -2 2 -96 581 -210 1288 -154 962 -211 1291 -224
1309 -20 28 -64 44 -102 36 -63 -14 -58 7 -193 -795 -100 -591 -129 -748 -143
-757 -13 -10 -104 -13 -375 -13 l-358 0 0 753 c0 438 4 780 10 820 18 123 88
220 198 274 l57 28 1827 3 1828 2 2 1818 3 1817 27 57 c34 73 103 142 176 176
l57 27 1401 3 1401 2 57 218 c31 119 59 225 62 235 5 16 -70 17 -1478 16 -816
-1 -1503 -5 -1527 -10z"/>
</g>
</svg>
